<svg width="440" height="280" viewBox="0 0 440 280" fill="none" xmlns="http://www.w3.org/2000/svg">
  <defs>
    <linearGradient id="bg" x1="0" y1="0" x2="440" y2="280" gradientUnits="userSpaceOnUse">
      <stop stop-color="#F7F0E7"/>
      <stop offset="1" stop-color="#EDE1D3"/>
    </linearGradient>
    <filter id="shadow" x="0" y="0" width="440" height="280" filterUnits="userSpaceOnUse" color-interpolation-filters="sRGB">
      <feDropShadow dx="0" dy="8" stdDeviation="12" flood-color="#5C4338" flood-opacity="0.12"/>
    </filter>
  </defs>
  <rect width="440" height="280" rx="28" fill="url(#bg)"/>
  <rect x="18" y="18" width="404" height="244" rx="24" fill="#FFF9F2" stroke="#DCCABD"/>
  <rect x="34" y="32" width="190" height="22" rx="10" fill="#F2E7DA"/>
  <text x="34" y="104" fill="#372620" font-size="28" font-weight="700" font-family="Georgia, 'Noto Serif', serif">Learn in context.</text>
  <text x="34" y="132" fill="#7A665C" font-size="14" font-weight="600" font-family="Arial, 'Noto Sans', sans-serif">Highlight words, translate instantly, and collect</text>
  <text x="34" y="152" fill="#7A665C" font-size="14" font-weight="600" font-family="Arial, 'Noto Sans', sans-serif">real examples while you browse.</text>

  <g filter="url(#shadow)">
    <rect x="248" y="42" width="152" height="190" rx="22" fill="#FFFDF9" stroke="#DDCDBE"/>
    <rect x="262" y="58" width="92" height="18" rx="9" fill="#EFE5D8"/>
    <rect x="262" y="88" width="104" height="16" rx="8" fill="#3A2A24" opacity="0.94"/>
    <rect x="262" y="113" width="126" height="14" rx="7" fill="#7E6A61" opacity="0.34"/>
    <rect x="262" y="143" width="88" height="28" rx="8" fill="#EEE0A9"/>
    <text x="270" y="162" fill="#4C392C" font-size="15" font-weight="700" font-family="Arial, 'Noto Sans', sans-serif">vulgar</text>
    <rect x="262" y="184" width="126" height="30" rx="13" fill="#EDF2EC" stroke="#D5DFCA"/>
    <text x="277" y="203" fill="#60764C" font-size="13" font-weight="700" font-family="Arial, 'Noto Sans', sans-serif">Examples</text>
    <circle cx="374" cy="98" r="14" fill="#F8F0E7" stroke="#DECFC2"/>
    <text x="367" y="103" fill="#7C5A4D" font-size="14" font-weight="700" font-family="Arial, 'Noto Sans', sans-serif">🔊</text>
  </g>

  <g>
    <rect x="34" y="198" width="78" height="28" rx="14" fill="#BC7057" stroke="#A45C49"/>
    <text x="53" y="216" fill="#FFF9F3" font-size="13" font-weight="700" font-family="Arial, 'Noto Sans', sans-serif">Highlight</text>
    <rect x="120" y="198" width="86" height="28" rx="14" fill="#F3E8DD" stroke="#DECFC1"/>
    <text x="144" y="216" fill="#7B5F53" font-size="13" font-weight="700" font-family="Arial, 'Noto Sans', sans-serif">Translate</text>
    <rect x="214" y="198" width="82" height="28" rx="14" fill="#F3E8DD" stroke="#DECFC1"/>
    <text x="239" y="216" fill="#7B5F53" font-size="13" font-weight="700" font-family="Arial, 'Noto Sans', sans-serif">Examples</text>
  </g>

  <text x="34" y="246" fill="#9B8478" font-size="12" font-weight="700" font-family="Arial, 'Noto Sans', sans-serif">Language Annotator</text>
</svg>
