<svg width="1280" height="800" viewBox="0 0 1280 800" fill="none" xmlns="http://www.w3.org/2000/svg">
  <rect width="1280" height="800" fill="#F5EEE5"/>
  <rect x="36" y="36" width="1208" height="728" rx="28" fill="#FFFAF3" stroke="#DCCABD"/>
  <text x="70" y="94" fill="#372620" font-size="42" font-weight="700" font-family="Georgia, 'Noto Serif', serif">Translate instantly and look up dictionary entries</text>
  <text x="70" y="130" fill="#7A665C" font-size="20" font-weight="600" font-family="Arial, 'Noto Sans', sans-serif">Select text to open a bright translation card with optional dictionary support.</text>

  <rect x="70" y="186" width="1140" height="474" rx="24" fill="#FFFDF9" stroke="#E2D2C5"/>
  <rect x="110" y="238" width="860" height="22" rx="11" fill="#43332C" opacity="0.92"/>
  <rect x="110" y="286" width="924" height="18" rx="9" fill="#7E6A61" opacity="0.26"/>
  <rect x="110" y="322" width="900" height="18" rx="9" fill="#7E6A61" opacity="0.22"/>
  <rect x="508" y="232" width="112" height="34" rx="9" fill="#EFE0A8"/>
  <text x="532" y="255" fill="#4B392C" font-size="18" font-weight="700" font-family="Arial, 'Noto Sans', sans-serif">bahtera</text>

  <rect x="768" y="270" width="370" height="284" rx="22" fill="#FFF8F2" stroke="#DCCABD"/>
  <text x="796" y="314" fill="#4B392C" font-size="26" font-weight="700" font-family="Arial, 'Noto Sans', sans-serif">方舟；大船</text>
  <text x="796" y="358" fill="#876F63" font-size="16" font-weight="600" font-family="Arial, 'Noto Sans', sans-serif">Translation card opens near your selection.</text>
  <line x1="796" y1="390" x2="1110" y2="390" stroke="#E1D4C7"/>
  <text x="796" y="426" fill="#8A6B54" font-size="16" font-weight="700" font-family="Arial, 'Noto Sans', sans-serif">Kateglo</text>
  <text x="796" y="458" fill="#4F3D34" font-size="18" font-weight="700" font-family="Arial, 'Noto Sans', sans-serif">[Nomina] kapal besar; bahtera</text>
  <text x="796" y="490" fill="#7A685D" font-size="15" font-weight="600" font-family="Arial, 'Noto Sans', sans-serif">Large vessel, ark.</text>
  <circle cx="1108" cy="296" r="14" fill="#F4EADF" stroke="#E0D0C2"/>
  <text x="1100" y="301" fill="#8F6F62" font-size="14" font-weight="700" font-family="Arial, 'Noto Sans', sans-serif">×</text>

  <rect x="70" y="720" width="182" height="38" rx="19" fill="#BC7057" stroke="#A45C49"/>
  <text x="110" y="744" fill="#FFF9F3" font-size="18" font-weight="700" font-family="Arial, 'Noto Sans', sans-serif">Core Feature 02</text>
</svg>
